HIERARCHY
ROOT Hips
{
 OFFSET 0.000000 0.000000 0.000000
 CHANNELS 6 Xposition Yposition Zposition Yrotation Xrotation Zrotation
 JOINT Chest
 {
  OFFSET 0.000000 9.585900 0.002600
  CHANNELS 3 Yrotation Xrotation Zrotation
  JOINT Chest2
  {
   OFFSET 0.000000 9.601200 -0.005300
   CHANNELS 3 Yrotation Xrotation Zrotation
   JOINT Chest3
   {
    OFFSET 0.000000 9.561800 0.000000
    CHANNELS 3 Yrotation Xrotation Zrotation
    JOINT Chest4
    {
     OFFSET 0.000000 9.552100 0.000000
     CHANNELS 3 Yrotation Xrotation Zrotation
     JOINT Neck
     {
      OFFSET 0.000000 14.453000 0.000000
      CHANNELS 3 Yrotation Xrotation Zrotation
      JOINT Head
      {
       OFFSET 0.000000 8.936500 -0.011300
       CHANNELS 3 Yrotation Xrotation Zrotation
       End Site
       {
        OFFSET 0.000000 17.073600 -0.006000
       }
      }
     }
     JOINT RightCollar
     {
      OFFSET -2.921100 9.558500 0.000000
      CHANNELS 3 Yrotation Xrotation Zrotation
      JOINT RightShoulder
      {
       OFFSET -13.519700 0.000000 0.000000
       CHANNELS 3 Yrotation Xrotation Zrotation
       JOINT RightElbow
       {
        OFFSET 0.000000 -29.696600 0.000000
        CHANNELS 3 Yrotation Xrotation Zrotation
        JOINT RightWrist
        {
         OFFSET 0.000000 -24.004700 0.000000
         CHANNELS 3 Yrotation Xrotation Zrotation
         End Site
         {
          OFFSET 0.000000 -17.728500 0.000000
         }
        }
       }
      }
     }
     JOINT LeftCollar
     {
      OFFSET 2.921100 9.558500 0.000000
      CHANNELS 3 Yrotation Xrotation Zrotation
      JOINT LeftShoulder
      {
       OFFSET 13.519700 0.000000 0.000000
       CHANNELS 3 Yrotation Xrotation Zrotation
       JOINT LeftElbow
       {
        OFFSET 0.000000 -29.696600 0.000000
        CHANNELS 3 Yrotation Xrotation Zrotation
        JOINT LeftWrist
        {
         OFFSET 0.000000 -24.004700 0.000000
         CHANNELS 3 Yrotation Xrotation Zrotation
         End Site
         {
          OFFSET 0.000000 -17.728500 0.000000
         }
        }
       }
      }
     }
    }
   }
  }
 }
 JOINT RightHip
 {
  OFFSET -7.771700 -0.012900 -0.001300
  CHANNELS 3 Yrotation Xrotation Zrotation
  JOINT RightKnee
  {
   OFFSET 0.000000 -40.869800 0.001200
   CHANNELS 3 Yrotation Xrotation Zrotation
   JOINT RightAnkle
   {
    OFFSET 0.000000 -39.717900 0.002100
    CHANNELS 3 Yrotation Xrotation Zrotation
    JOINT RightToe
    {
     OFFSET 0.000000 -4.965400 11.033500
     CHANNELS 3 Yrotation Xrotation Zrotation
     End Site
     {
      OFFSET 0.000000 -1.423100 5.872300
     }
    }
   }
  }
 }
 JOINT LeftHip
 {
  OFFSET 7.771700 -0.012900 -0.001300
  CHANNELS 3 Yrotation Xrotation Zrotation
  JOINT LeftKnee
  {
   OFFSET 0.000000 -40.869800 0.001200
   CHANNELS 3 Yrotation Xrotation Zrotation
   JOINT LeftAnkle
   {
    OFFSET 0.000000 -39.717900 0.002100
    CHANNELS 3 Yrotation Xrotation Zrotation
    JOINT LeftToe
    {
     OFFSET 0.000000 -4.965400 11.033500
     CHANNELS 3 Yrotation Xrotation Zrotation
     End Site
     {
      OFFSET 0.000000 -1.423100 5.872300
     }
    }
   }
  }
 }
}
MOTION
Frames: 12
Frame Time: 0.008333
0.000000 85.388000 0.000000 0.000000 -5.767877 0.000000 0.000000 11.653817 0.000000 0.000000 -5.885947 0.000000 0.000000 -0.000000 0.000000 0.000000 -0.000000 0.000000 0.000000 12.528835 0.000000 0.000000 0.711642 0.000000 0.000000 -0.000000 0.000000 0.000000 0.000000 -90.000000 0.000000 -2.309062 0.000000 0.000000 2.309062 0.000000 0.000000 -0.000000 0.000000 0.000000 -0.000000 90.000000 0.000000 -2.309062 0.000000 0.000000 2.309062 0.000000 0.000000 8.520406 0.000000 0.000000 1.905762 0.000000 -0.000000 -4.658285 0.000000 0.000000 -0.000000 0.000000 0.000000 8.520406 0.000000 0.000000 1.905762 0.000000 -0.000000 -4.658285 0.000000 0.000000 -0.000000 0.000000
-12.198746 55.151017 34.718433 179.314047 -31.646110 -9.940990 1.161827 16.727620 5.943767 0.545418 9.607024 2.886579 0.761325 12.003441 3.635708 0.545410 9.606990 2.886583 2.754401 20.772827 -2.013989 3.415348 -3.567524 -2.790477 -4.720396 -0.775041 -9.168778 -2.202350 -14.951654 1.347760 -90.005475 -35.783946 141.546900 -1.571901 -12.441747 10.608963 -10.728614 -2.485472 -0.279512 5.547823 -12.427018 -1.476801 132.213499 -47.471564 -161.548418 44.655636 -2.340698 -27.729215 -13.435786 -35.913808 5.979986 14.878064 84.817531 8.216862 -3.462200 -14.660633 6.298948 -0.129899 0.532366 0.004725 -14.507993 -46.049503 13.411350 175.652808 80.036038 170.809963 -0.565848 -18.376405 1.992660 0.071789 -0.548497 0.066017
-12.202828 55.160424 34.708173 179.370820 -31.617913 -9.959316 1.115336 16.557270 5.876265 0.530405 9.510057 2.852541 0.740761 11.882407 3.592199 0.530390 9.510040 2.852514 2.755899 20.658118 -1.973215 3.406058 -3.701083 -2.745914 -4.531466 -0.789461 -8.998400 -2.406698 -14.954354 1.287051 -90.533534 -36.360957 141.549736 -1.425765 -12.567396 10.112352 -10.757482 -2.484317 -0.372541 5.511163 -12.209055 -1.347527 134.416158 -48.657082 -162.522506 43.974991 -2.672234 -27.072556 -13.442995 -35.922419 5.970553 14.671016 84.807508 7.988161 -3.479083 -14.616700 6.314168 -0.147228 0.495715 0.032321 -14.571565 -46.057385 13.427841 175.777701 80.039448 170.925506 -0.574891 -18.381804 1.963442 0.070155 -0.543497 0.074491
-12.206950 55.172169 34.699967 179.404573 -31.581547 -9.967570 1.088723 16.375597 5.811294 0.516831 9.409812 2.816541 0.721995 11.757289 3.546299 0.516806 9.409829 2.816528 2.760391 20.545163 -1.922659 3.397642 -3.832599 -2.691603 -4.357443 -0.802041 -8.821145 -2.611052 -14.932206 1.243763 -91.230206 -37.101050 141.607570 -1.214318 -12.690480 9.542031 -10.770538 -2.485322 -0.469961 5.454530 -11.976532 -1.234775 137.332651 -50.039113 -163.962987 43.023071 -3.045052 -26.461207 -13.459316 -35.941417 5.992192 15.262379 84.776959 8.517380 -3.559908 -14.542897 6.324348 -0.139465 0.441883 0.074424 -14.616930 -46.070315 13.446426 175.880031 80.047658 171.019733 -0.576073 -18.393645 1.945652 0.071111 -0.539666 0.081379
-12.211897 55.187588 34.693422 179.429023 -31.550158 -9.970449 1.068017 16.195575 5.746460 0.505355 9.306281 2.779201 0.705735 11.628079 3.498686 0.505310 9.306322 2.779204 2.768572 20.446836 -1.860961 3.390700 -3.947445 -2.626300 -4.201578 -0.804009 -8.642746 -2.811152 -14.894486 1.212880 -92.133482 -38.030670 141.743649 -0.930234 -12.796028 8.857703 -10.762471 -2.479235 -0.572948 5.364096 -11.739174 -1.139180 141.184844 -51.567193 -166.044178 41.813524 -3.457450 -25.889397 -13.472888 -35.960009 6.019982 15.878369 84.737044 9.107145 -3.793637 -14.429021 6.308599 -0.139654 0.426685 0.083486 -14.662247 -46.071363 13.466475 175.930506 80.061846 171.058822 -0.584782 -18.409394 1.920413 0.078072 -0.532868 0.096724
-12.216836 55.207208 34.689917 179.437999 -31.528098 -9.974907 1.059600 16.015676 5.691441 0.497116 9.199127 2.741699 0.693550 11.494356 3.450976 0.497091 9.199193 2.741700 2.781864 20.377947 -1.789116 3.387279 -4.028409 -2.551523 -4.070363 -0.789449 -8.468674 -3.002026 -14.843136 1.192618 -93.276551 -39.167630 141.986728 -0.574876 -12.854733 8.026431 -10.741135 -2.456237 -0.679771 5.233205 -11.504642 -1.053084 146.186929 -53.172206 -168.946893 40.391376 -3.941091 -25.345581 -13.509035 -35.964940 6.109260 16.370338 84.684398 9.528549 -4.099497 -14.275901 6.299365 -0.141636 0.381431 0.129716 -14.691775 -46.059271 13.489572 175.969218 80.082048 171.093723 -0.592004 -18.424516 1.890816 0.078075 -0.525306 0.103907
-12.221608 55.231843 34.689694 179.424896 -31.525346 -9.986268 1.076836 15.842298 5.656476 0.492176 9.089196 2.704859 0.685480 11.357169 3.404235 0.492167 9.089272 2.704841 2.799671 20.349430 -1.708335 3.387150 -4.063028 -2.468604 -3.970457 -0.760506 -8.300544 -3.178728 -14.775276 1.187815 -94.691687 -40.524456 142.368753 -0.165127 -12.850099 7.046631 -10.716067 -2.415008 -0.788011 5.048456 -11.273324 -0.956775 152.477783 -54.748891 -172.837789 38.786022 -4.554022 -24.762557 -13.496843 -35.949068 6.222559 16.506752 84.616852 9.521723 -4.140825 -14.088555 6.303660 -0.124586 0.313432 0.179618 -14.721526 -46.017970 13.514491 175.820306 80.105695 170.955480 -0.596392 -18.451566 1.837644 0.067815 -0.509102 0.091468
-12.233432 55.256815 34.698423 179.420721 -31.499191 -9.986561 1.080747 15.639598 5.604200 0.489795 8.978004 2.669997 0.680672 11.218279 3.360039 0.489787 8.978096 2.669969 2.818998 20.367570 -1.620728 3.387537 -4.044230 -2.379106 -3.902801 -0.721757 -8.143953 -3.347933 -14.691982 1.210683 -96.374503 -42.107122 142.910076 0.274496 -12.815312 5.965093 -10.689481 -2.360274 -0.897046 4.802533 -11.046893 -0.840029 160.151110 -56.149209 -177.868077 37.056289 -5.319820 -24.057295 -13.421338 -35.987141 6.248770 16.879441 84.545310 9.791889 -3.992603 -13.829097 6.291039 -0.116084 0.200677 0.211331 -14.725047 -46.013813 13.487871 175.535702 80.137523 170.710435 -0.599593 -18.454516 1.776194 0.068204 -0.500337 0.096848
-12.250526 55.283995 34.712572 179.412462 -31.481506 -9.988063 1.093278 15.440628 5.553107 0.488797 8.866063 2.637553 0.677772 11.078307 3.318945 0.488801 8.866122 2.637526 2.839653 20.437253 -1.528567 3.388780 -3.966323 -2.285331 -3.862152 -0.674279 -8.006415 -3.526679 -14.601099 1.274454 -98.270635 -43.896047 143.606980 0.737560 -12.795889 4.852257 -10.657101 -2.293853 -1.003867 4.518508 -10.834673 -0.710945 169.061143 -57.181291 176.058098 35.244594 -6.165860 -23.249509 -13.295067 -36.039497 6.286120 16.791112 84.479599 9.624362 -3.942674 -13.452259 6.324295 -0.113681 0.044650 0.232989 -14.711337 -46.003866 13.430283 175.168646 80.175627 170.406166 -0.587491 -18.451291 1.698253 0.064835 -0.491966 0.097588
-12.274473 55.310940 34.731893 179.414040 -31.469208 -9.992456 1.098806 15.247720 5.496166 0.488366 8.753664 2.606462 0.675590 10.937828 3.279532 0.488367 8.753667 2.606441 2.861964 20.559117 -1.430714 3.391193 -3.828437 -2.186178 -3.841944 -0.619439 -7.887643 -3.727095 -14.506146 1.382990 -100.324284 -45.846115 144.445158 1.240432 -12.791576 3.773839 -10.615229 -2.218220 -1.101484 4.223179 -10.635762 -0.573335 178.767137 -57.682985 169.310614 33.358765 -7.011471 -22.414073 -13.129753 -36.107096 6.317413 16.333154 84.412286 9.121778 -3.997777 -12.952539 6.372736 -0.115601 -0.147403 0.262160 -14.695977 -45.993679 13.340087 174.733096 80.218091 170.047759 -0.554690 -18.439263 1.610724 0.054734 -0.484490 0.089271
-12.303676 55.333655 34.756938 179.409818 -31.453839 -9.998043 1.107609 15.047849 5.438789 0.488204 8.642898 2.575905 0.673727 10.799484 3.240776 0.488187 8.642905 2.575882 2.885538 20.729062 -1.328271 3.405294 -3.582866 -2.069512 -3.838483 -0.560979 -7.784337 -3.945280 -14.402982 1.531117 -102.525250 -47.921776 145.434320 1.804317 -12.775009 2.773354 -10.568011 -2.138490 -1.188392 3.922345 -10.434139 -0.420144 -171.197269 -57.574232 162.246468 31.439451 -7.859553 -21.562964 -12.917022 -36.195188 6.328978 15.495552 84.325440 8.279298 -4.050791 -12.333872 6.391545 -0.120909 -0.364639 0.314017 -14.691980 -45.994017 13.222128 174.405370 80.263262 169.823170 -0.458662 -18.422926 1.480941 0.057375 -0.474305 0.089180
-12.338497 55.348461 34.783965 179.416471 -31.443738 -9.998273 1.094970 14.847368 5.364270 0.488155 8.535894 2.545324 0.672073 10.665832 3.202037 0.488112 8.535906 2.545294 2.912995 20.946125 -1.227286 3.422598 -3.362860 -1.954093 -3.849384 -0.501788 -7.700067 -4.167279 -14.286334 1.718989 -104.890178 -50.106369 146.604945 2.443919 -12.720173 1.881137 -10.523306 -2.051007 -1.268527 3.614812 -10.219301 -0.253320 -161.301464 -56.834524 155.224174 29.514970 -8.733144 -20.657086 -12.675134 -36.284121 6.296208 14.423032 84.200149 7.237890 -4.104704 -11.610387 6.353380 -0.127904 -0.589378 0.396499 -14.700663 -45.995457 13.104964 174.077689 80.303091 169.574327 -0.376282 -18.406410 1.369049 0.060297 -0.461368 0.088481
